<svg width="193" height="53" viewBox="0 0 193 53" fill="none" xmlns="http://www.w3.org/2000/svg">
<path d="M65.5772 43.5301C65.5653 43.5181 65.5496 43.5062 65.5338 43.5062C65.522 43.5062 65.5141 43.5062 65.5062 43.5141C65.4984 43.5181 65.4865 43.5301 65.4786 43.534C65.3998 43.6057 65.3171 43.6693 65.2383 43.725C65.1634 43.7807 65.0806 43.8205 64.986 43.8563C64.8915 43.8961 64.7929 43.924 64.6826 43.9399C64.5723 43.9598 64.4501 43.9678 64.3122 43.9678C64.0915 43.9678 63.8787 43.9319 63.6895 43.8484C63.4964 43.7688 63.3348 43.6534 63.1969 43.5022C63.059 43.351 62.9447 43.16 62.8659 42.9451C62.791 42.7263 62.7516 42.4756 62.7516 42.197C62.7516 41.9264 62.791 41.6797 62.8659 41.4609C62.9486 41.246 63.059 41.063 63.2048 40.9038C63.3467 40.7566 63.52 40.6372 63.7171 40.5536C63.9141 40.4701 64.1309 40.4303 64.3673 40.4303C64.722 40.4303 65.0452 40.486 65.3328 40.6173C65.3486 40.9714 65.3683 41.1784 65.3683 41.2221C65.3722 41.3137 65.4038 41.3574 65.4826 41.3574H65.6166V40.4661C65.1516 40.2751 64.7338 40.1876 64.3673 40.1876C64.0875 40.1876 63.8314 40.2313 63.5949 40.3308C63.3624 40.4303 63.1535 40.5656 62.988 40.7446C62.8186 40.9237 62.6925 41.1346 62.5979 41.3773C62.5033 41.624 62.46 41.8986 62.46 42.197C62.46 42.5034 62.5073 42.778 62.5979 43.0287C62.6846 43.2794 62.8107 43.4863 62.9723 43.6614C63.1338 43.8404 63.3269 43.9757 63.5516 44.0712C63.7762 44.1627 64.0205 44.2145 64.2925 44.2145C64.4501 44.2145 64.5998 44.2025 64.7378 44.1747C64.8718 44.1468 64.9979 44.107 65.1121 44.0593C65.2225 44.0076 65.3289 43.9479 65.4235 43.8802C65.5141 43.8086 65.6048 43.737 65.6875 43.6454L65.5772 43.5301ZM72.5052 43.9319L72.3239 43.9121L70.8343 40.2273H70.5545L69.0569 43.9121L68.8796 43.9319C68.8087 43.9359 68.7771 43.9757 68.7771 44.0434V44.1707H68.9545H69.0688H69.1673H69.2067H69.7269V44.0434C69.7269 43.9678 69.6796 43.9359 69.5968 43.9319C69.5929 43.9319 69.5811 43.924 69.5653 43.924C69.5495 43.924 69.5259 43.92 69.4865 43.92C69.451 43.92 69.3998 43.92 69.3446 43.9121L69.7308 42.9491L69.7584 42.8775H71.6224L71.65 42.9491L72.0362 43.9121C71.981 43.92 71.9377 43.92 71.8983 43.92C71.8589 43.92 71.8313 43.924 71.8155 43.924C71.7998 43.924 71.7879 43.9319 71.784 43.9319C71.7012 43.9359 71.6579 43.9678 71.6579 44.0434V44.1707H72.1741H72.2135H72.32H72.4303H72.6116V44.0434C72.6116 43.9757 72.5761 43.9359 72.5052 43.9319ZM70.6136 40.7486C70.6254 40.7168 70.6412 40.677 70.653 40.6372C70.6648 40.5974 70.6806 40.5616 70.6924 40.5138C70.7003 40.5616 70.72 40.5974 70.7278 40.6372C70.7397 40.677 70.7554 40.7088 70.7673 40.7446L71.5397 42.6666H69.8451L70.6136 40.7486ZM79.0036 43.9598H78.9682H78.8933C78.8617 43.9598 78.8302 43.9518 78.7948 43.9518L77.6243 42.4636C77.5928 42.4199 77.5494 42.3801 77.5061 42.3522C77.6756 42.3363 77.8292 42.2965 77.9672 42.2368C78.1051 42.1771 78.2155 42.0976 78.314 42.0021C78.4086 41.9066 78.4874 41.7951 78.5347 41.6758C78.5859 41.5524 78.6135 41.4131 78.6135 41.2619C78.6135 40.9237 78.5031 40.673 78.2824 40.4939C78.0618 40.3189 77.7268 40.2313 77.2736 40.2313H76.3238H75.8588V40.3388C75.8588 40.3984 75.8943 40.4303 75.9652 40.4382H76.0204C76.048 40.4382 76.0874 40.4422 76.1426 40.4422C76.1977 40.4422 76.2569 40.4502 76.3238 40.4502V43.9479C76.2569 43.9479 76.1977 43.9518 76.1426 43.9518C76.0874 43.9518 76.048 43.9598 76.0204 43.9598H75.9652C75.8943 43.9638 75.8549 43.9956 75.8549 44.0593V44.1707H76.3238H76.6036H77.0687V44.0593C77.0687 43.9956 77.0293 43.9638 76.9583 43.9598H76.9031C76.8756 43.9598 76.8362 43.9518 76.781 43.9518C76.7258 43.9518 76.6706 43.9479 76.6036 43.9479V42.388H77.0687C77.1475 42.388 77.2027 42.392 77.2342 42.4079C77.2657 42.4278 77.3012 42.4597 77.3327 42.4994L78.5859 44.0991C78.6095 44.1269 78.6253 44.1428 78.645 44.1548C78.6686 44.1627 78.6962 44.1707 78.7238 44.1707H78.7514H78.9682H79.11V44.0593C79.11 43.9956 79.0785 43.9638 79.0036 43.9598ZM77.2342 42.1771H76.6036V40.4542H77.2736C77.6204 40.4542 77.8844 40.5258 78.0657 40.6611C78.2509 40.7924 78.3376 41.0073 78.3376 41.2858C78.3376 41.4251 78.314 41.5405 78.2667 41.6519C78.2155 41.7633 78.1406 41.8508 78.046 41.9304C77.9514 42.01 77.8371 42.0737 77.6992 42.1135C77.5613 42.1533 77.4036 42.1771 77.2342 42.1771ZM83.4528 40.4382C83.5238 40.4303 83.5553 40.3984 83.5553 40.3388V40.2273H83.0942H82.8105H82.3415V40.3388C82.3415 40.3984 82.3809 40.4303 82.4519 40.4382H82.507C82.5346 40.4382 82.574 40.4422 82.6292 40.4422C82.6844 40.4422 82.7474 40.4502 82.8105 40.4502V43.9479C82.7474 43.9479 82.6844 43.9518 82.6292 43.9518C82.574 43.9518 82.5346 43.9598 82.507 43.9598H82.4519C82.3809 43.9638 82.3415 43.9956 82.3415 44.0593V44.1707H82.8105H83.0942H83.5553V44.0593C83.5553 43.9956 83.5238 43.9638 83.4528 43.9598H83.3977C83.3701 43.9598 83.3307 43.9518 83.2755 43.9518C83.2203 43.9518 83.1612 43.9479 83.0942 43.9479V40.4502C83.1612 40.4502 83.2203 40.4422 83.2755 40.4422C83.3307 40.4422 83.3701 40.4382 83.3977 40.4382H83.4528ZM94.0852 43.9598H94.0458H93.9749C93.9394 43.9598 93.9079 43.9518 93.8724 43.9518L92.7059 42.4636C92.6705 42.4199 92.6271 42.3801 92.5838 42.3522C92.7532 42.3363 92.9069 42.2965 93.0448 42.2368C93.1828 42.1771 93.2931 42.0976 93.3956 42.0021C93.4862 41.9066 93.565 41.7951 93.6163 41.6758C93.6636 41.5524 93.6911 41.4131 93.6911 41.2619C93.6911 40.9237 93.5808 40.673 93.3601 40.4939C93.1394 40.3189 92.8045 40.2313 92.3513 40.2313H91.4015H90.9404V40.3388C90.9404 40.3984 90.972 40.4303 91.0429 40.4382H91.0981C91.1257 40.4382 91.1651 40.4422 91.2202 40.4422C91.2754 40.4422 91.3345 40.4502 91.4015 40.4502V43.9479C91.3345 43.9479 91.2754 43.9518 91.2202 43.9518C91.1651 43.9518 91.1257 43.9598 91.0981 43.9598H91.0429C90.972 43.9638 90.9326 43.9956 90.9326 44.0593V44.1707H91.4015H91.6853H92.1463V44.0593C92.1463 43.9956 92.1069 43.9638 92.036 43.9598H91.9808C91.9532 43.9598 91.9138 43.9518 91.8587 43.9518C91.8035 43.9518 91.7483 43.9479 91.6853 43.9479V42.388H92.1463C92.2251 42.388 92.2803 42.392 92.3118 42.4079C92.3473 42.4278 92.3788 42.4597 92.4104 42.4994L93.6636 44.0991C93.6872 44.1269 93.703 44.1428 93.7266 44.1548C93.7463 44.1627 93.7739 44.1707 93.8015 44.1707H93.8291H94.0458H94.1877V44.0593C94.1877 43.9956 94.1562 43.9638 94.0852 43.9598ZM92.3118 42.1771H91.6853V40.4542H92.3513C92.698 40.4542 92.9621 40.5258 93.1473 40.6611C93.3286 40.7924 93.4153 41.0073 93.4153 41.2858C93.4153 41.4251 93.3956 41.5405 93.3443 41.6519C93.2931 41.7633 93.2182 41.8508 93.1237 41.9304C93.0291 42.01 92.9148 42.0737 92.7769 42.1135C92.6389 42.1533 92.4852 42.1771 92.3118 42.1771ZM100.615 40.2313H100.335H99.7994V40.3388C99.7994 40.3984 99.8389 40.4303 99.9098 40.4382H99.9768C100.016 40.4382 100.071 40.4422 100.134 40.4422C100.201 40.4422 100.268 40.4502 100.335 40.4502V42.6666C100.335 42.8496 100.308 43.0167 100.253 43.1799C100.197 43.3391 100.119 43.4783 100.016 43.5977C99.9098 43.7131 99.7876 43.8006 99.6379 43.8683C99.4921 43.9359 99.3265 43.9678 99.1374 43.9678C98.9482 43.9678 98.7788 43.9359 98.629 43.8683C98.4793 43.8006 98.3532 43.7091 98.2546 43.5897C98.1482 43.4743 98.0773 43.3351 98.0221 43.1799C97.967 43.0207 97.9394 42.8496 97.9394 42.6666V40.4502C98.0064 40.4502 98.0734 40.4422 98.1404 40.4422C98.2034 40.4422 98.2586 40.4382 98.298 40.4382H98.365C98.4359 40.4303 98.4753 40.3984 98.4753 40.3388V40.2313H97.9394H97.6596H97.1946V40.3388C97.1946 40.3984 97.23 40.4303 97.301 40.4382H97.3561C97.3837 40.4382 97.4231 40.4422 97.4783 40.4422C97.5335 40.4422 97.5926 40.4502 97.6596 40.4502V42.6666C97.6596 42.8814 97.6911 43.0844 97.7581 43.2714C97.8251 43.4624 97.9236 43.6295 98.0497 43.7688C98.1758 43.9081 98.3374 44.0195 98.5187 44.0991C98.7 44.1747 98.9128 44.2145 99.1374 44.2145C99.362 44.2145 99.5669 44.1747 99.7482 44.0991C99.9334 44.0195 100.091 43.9081 100.217 43.7688C100.347 43.6295 100.446 43.4624 100.513 43.2714C100.576 43.0844 100.615 42.8814 100.615 42.6666V40.4502C100.682 40.4502 100.737 40.4422 100.793 40.4422C100.848 40.4422 100.891 40.4382 100.919 40.4382H100.97C101.041 40.4303 101.08 40.3984 101.08 40.3388V40.2313H100.615ZM108.919 40.4382C108.989 40.4303 109.029 40.3984 109.029 40.3388V40.2313H108.568H108.367C108.339 40.2313 108.323 40.2313 108.308 40.2353C108.292 40.2433 108.28 40.2592 108.264 40.2831L106.727 43.0167C106.712 43.0446 106.7 43.0724 106.692 43.1003C106.68 43.1282 106.668 43.16 106.657 43.1878C106.637 43.1282 106.613 43.0724 106.586 43.0207L105.009 40.2831C104.99 40.2592 104.982 40.2433 104.962 40.2353C104.946 40.2313 104.93 40.2313 104.903 40.2313H104.71H104.241V40.3388C104.241 40.3984 104.28 40.4303 104.351 40.4382H104.406C104.434 40.4382 104.473 40.4422 104.528 40.4422C104.584 40.4422 104.643 40.4502 104.71 40.4502V43.9479C104.643 43.9479 104.584 43.9518 104.528 43.9518C104.473 43.9518 104.434 43.9598 104.406 43.9598H104.351C104.28 43.9638 104.241 43.9956 104.241 44.0593V44.1707H104.71H104.954H105.431V44.0593C105.431 43.9956 105.395 43.9638 105.321 43.9598H105.265C105.238 43.9598 105.194 43.9518 105.139 43.9518C105.084 43.9518 105.017 43.9479 104.954 43.9479V40.8123C104.954 40.7606 104.954 40.7088 104.946 40.6531L106.526 43.4107C106.554 43.4624 106.59 43.4863 106.637 43.4863H106.68C106.727 43.4863 106.763 43.4624 106.791 43.4107L108.323 40.6531C108.32 40.7088 108.32 40.7606 108.32 40.8123V43.9479C108.253 43.9479 108.186 43.9518 108.13 43.9518C108.075 43.9518 108.032 43.9598 108.004 43.9598H107.949C107.878 43.9638 107.839 43.9956 107.839 44.0593V44.1707H108.32H108.568H109.029V44.0593C109.029 43.9956 108.989 43.9638 108.919 43.9598H108.871C108.844 43.9598 108.796 43.9518 108.741 43.9518C108.686 43.9518 108.631 43.9479 108.568 43.9479V40.4502C108.631 40.4502 108.686 40.4422 108.741 40.4422C108.796 40.4422 108.844 40.4382 108.871 40.4382H108.919ZM115.981 43.9319L115.799 43.9121L114.31 40.2273H114.03L112.532 43.9121L112.355 43.9319C112.284 43.9359 112.253 43.9757 112.253 44.0434V44.1707H112.43H112.544H112.643H112.682H113.202V44.0434C113.202 43.9678 113.155 43.9359 113.072 43.9319C113.068 43.9319 113.056 43.924 113.041 43.924C113.025 43.924 113.001 43.92 112.962 43.92C112.926 43.92 112.875 43.92 112.82 43.9121L113.206 42.9491L113.234 42.8775H115.098L115.125 42.9491L115.512 43.9121C115.456 43.92 115.413 43.92 115.374 43.92C115.334 43.92 115.307 43.924 115.291 43.924C115.275 43.924 115.263 43.9319 115.259 43.9319C115.177 43.9359 115.133 43.9678 115.133 44.0434V44.1707H115.65H115.689H115.795H115.906H116.087V44.0434C116.087 43.9757 116.051 43.9359 115.981 43.9319ZM114.089 40.7486C114.101 40.7168 114.117 40.677 114.128 40.6372C114.14 40.5974 114.156 40.5616 114.168 40.5138C114.176 40.5616 114.195 40.5974 114.203 40.6372C114.215 40.677 114.231 40.7088 114.243 40.7446L115.015 42.6666H113.32L114.089 40.7486ZM123.165 40.4382C123.236 40.4303 123.275 40.3984 123.275 40.3388V40.2313H122.81H122.526H122.061V40.3388C122.061 40.3984 122.101 40.4303 122.172 40.4382H122.223C122.25 40.4382 122.294 40.4422 122.349 40.4422C122.404 40.4422 122.459 40.4502 122.526 40.4502V42.0657H120.079V40.4502C120.146 40.4502 120.209 40.4422 120.264 40.4422C120.319 40.4422 120.355 40.4382 120.382 40.4382H120.438C120.513 40.4303 120.544 40.3984 120.544 40.3388V40.2313H120.079H119.799H119.33V40.3388C119.33 40.3984 119.37 40.4303 119.441 40.4382H119.496C119.523 40.4382 119.563 40.4422 119.618 40.4422C119.673 40.4422 119.732 40.4502 119.799 40.4502V43.9479C119.732 43.9479 119.673 43.9518 119.618 43.9518C119.563 43.9518 119.523 43.9598 119.496 43.9598H119.441C119.37 43.9638 119.33 43.9956 119.33 44.0593V44.1707H119.799H120.079H120.544V44.0593C120.544 43.9956 120.513 43.9638 120.438 43.9598H120.382C120.355 43.9598 120.319 43.9518 120.264 43.9518C120.209 43.9518 120.146 43.9479 120.079 43.9479V42.2806H122.526V43.9479C122.459 43.9479 122.404 43.9518 122.349 43.9518C122.294 43.9518 122.25 43.9598 122.223 43.9598H122.172C122.101 43.9638 122.061 43.9956 122.061 44.0593V44.1707H122.526H122.81H123.275V44.0593C123.275 43.9956 123.236 43.9638 123.165 43.9598H123.113C123.086 43.9598 123.043 43.9518 122.987 43.9518C122.932 43.9518 122.877 43.9479 122.81 43.9479V40.4502C122.877 40.4502 122.932 40.4422 122.987 40.4422C123.043 40.4422 123.086 40.4382 123.113 40.4382H123.165ZM130.554 40.5696L130.617 40.681C130.629 40.7048 130.656 40.7168 130.684 40.7168C130.696 40.7168 130.719 40.7009 130.751 40.6651C130.782 40.6332 130.834 40.5974 130.893 40.5616C130.956 40.5218 131.031 40.482 131.121 40.4502C131.208 40.4144 131.314 40.4024 131.437 40.4024C131.527 40.4024 131.622 40.4144 131.712 40.4422C131.799 40.4701 131.87 40.5138 131.937 40.5696C132.004 40.6253 132.059 40.6929 132.099 40.7725C132.134 40.8481 132.154 40.9396 132.154 41.0391C132.154 41.1624 132.13 41.2739 132.087 41.3614C132.043 41.4529 131.988 41.5285 131.921 41.6002C131.854 41.6678 131.787 41.7354 131.712 41.7912C131.634 41.8469 131.563 41.9026 131.496 41.9583C131.429 42.014 131.381 42.0697 131.334 42.1254C131.291 42.1811 131.271 42.2488 131.271 42.3244V42.3363L131.279 42.8178H131.456L131.492 42.3602C131.496 42.2965 131.523 42.2368 131.567 42.1851C131.61 42.1373 131.673 42.0816 131.74 42.0299C131.803 41.9822 131.878 41.9264 131.953 41.8628C132.032 41.8071 132.106 41.7394 132.173 41.6638C132.24 41.5842 132.292 41.4967 132.335 41.3972C132.378 41.2938 132.402 41.1664 132.402 41.0272C132.402 40.8998 132.374 40.7844 132.323 40.677C132.272 40.5696 132.209 40.482 132.118 40.4104C132.032 40.3388 131.937 40.2831 131.823 40.2433C131.705 40.2035 131.582 40.1796 131.456 40.1796C131.354 40.1796 131.259 40.1915 131.169 40.2154C131.082 40.2353 131.003 40.2711 130.928 40.3029C130.849 40.3388 130.778 40.3825 130.719 40.4263C130.656 40.4701 130.601 40.5218 130.554 40.5696ZM131.109 43.9598C131.109 44.0314 131.133 44.0871 131.18 44.1349C131.232 44.1866 131.291 44.2145 131.362 44.2145C131.397 44.2145 131.429 44.2025 131.464 44.1906C131.496 44.1826 131.523 44.1588 131.547 44.1349C131.567 44.115 131.59 44.0911 131.602 44.0593C131.61 44.0235 131.618 43.9956 131.618 43.9598C131.618 43.924 131.61 43.8922 131.602 43.8563C131.59 43.8245 131.567 43.7967 131.547 43.7728C131.523 43.7529 131.496 43.729 131.464 43.7171C131.429 43.7091 131.397 43.6972 131.362 43.6972C131.326 43.6972 131.299 43.7091 131.263 43.7171C131.236 43.729 131.204 43.7529 131.18 43.7728C131.161 43.7967 131.137 43.8245 131.125 43.8563C131.113 43.8922 131.109 43.924 131.109 43.9598ZM143.314 41.3773C143.224 41.1346 143.097 40.9317 142.932 40.7606C142.766 40.5894 142.573 40.4542 142.349 40.3666C142.12 40.2751 141.864 40.2313 141.588 40.2313H140.236H139.767V40.3388C139.767 40.3984 139.803 40.4303 139.878 40.4382H139.933C139.961 40.4382 139.996 40.4422 140.051 40.4422C140.106 40.4422 140.169 40.4502 140.236 40.4502V43.9479C140.169 43.9479 140.106 43.9518 140.051 43.9518C139.996 43.9518 139.961 43.9598 139.933 43.9598H139.878C139.803 43.9638 139.767 43.9956 139.767 44.0593V44.1707H140.236H141.588C141.864 44.1707 142.12 44.1269 142.349 44.0354C142.573 43.9479 142.766 43.8126 142.932 43.6415C143.097 43.4664 143.224 43.2634 143.314 43.0167C143.401 42.77 143.452 42.5034 143.452 42.197C143.452 41.8986 143.401 41.624 143.314 41.3773ZM143.042 42.9372C142.967 43.156 142.865 43.3351 142.727 43.4863C142.589 43.6335 142.424 43.7449 142.23 43.8245C142.037 43.9041 141.825 43.9399 141.588 43.9399H140.516V40.4581H141.588C141.825 40.4581 142.037 40.4979 142.23 40.5775C142.424 40.6531 142.589 40.7645 142.727 40.9157C142.865 41.0669 142.967 41.246 143.042 41.4609C143.121 41.6797 143.161 41.9264 143.161 42.197C143.161 42.4756 143.121 42.7223 143.042 42.9372ZM147.826 40.4382C147.897 40.4303 147.933 40.3984 147.933 40.3388V40.2273H147.468H147.188H146.719V40.3388C146.719 40.3984 146.755 40.4303 146.829 40.4382H146.885C146.912 40.4382 146.948 40.4422 147.003 40.4422C147.058 40.4422 147.121 40.4502 147.188 40.4502V43.9479C147.121 43.9479 147.058 43.9518 147.003 43.9518C146.948 43.9518 146.912 43.9598 146.885 43.9598H146.829C146.755 43.9638 146.719 43.9956 146.719 44.0593V44.1707H147.188H147.468H147.933V44.0593C147.933 43.9956 147.897 43.9638 147.826 43.9598H147.771C147.744 43.9598 147.704 43.9518 147.649 43.9518C147.594 43.9518 147.535 43.9479 147.468 43.9479V40.4502C147.535 40.4502 147.594 40.4422 147.649 40.4422C147.704 40.4422 147.744 40.4382 147.771 40.4382H147.826ZM153.478 42.6148C153.422 42.5114 153.344 42.4079 153.249 42.3363C153.155 42.2647 153.056 42.205 152.942 42.1533C152.823 42.1015 152.697 42.0578 152.575 42.018C152.457 41.9822 152.335 41.9344 152.217 41.8986C152.102 41.8508 151.996 41.8031 151.905 41.7394C151.811 41.6797 151.74 41.6081 151.685 41.5166C151.629 41.4291 151.594 41.3176 151.594 41.1823C151.594 41.0829 151.618 40.9874 151.657 40.8958C151.692 40.8003 151.748 40.7208 151.823 40.6491C151.893 40.5775 151.98 40.5218 152.09 40.482C152.201 40.4422 152.323 40.4223 152.465 40.4223C152.733 40.4223 152.973 40.4661 153.194 40.5616C153.21 40.8759 153.222 41.055 153.222 41.0829C153.229 41.1744 153.261 41.2221 153.34 41.2221H153.47V40.4144C153.123 40.2632 152.792 40.1876 152.465 40.1876C152.284 40.1876 152.126 40.2154 151.98 40.2711C151.838 40.3268 151.72 40.3984 151.629 40.4939C151.535 40.5894 151.456 40.6929 151.409 40.8163C151.357 40.9396 151.334 41.0669 151.334 41.2022C151.334 41.3694 151.361 41.5126 151.417 41.624C151.472 41.7354 151.551 41.823 151.645 41.9026C151.74 41.9822 151.838 42.0379 151.953 42.0856C152.071 42.1373 152.197 42.1811 152.319 42.2209C152.437 42.2607 152.556 42.2965 152.678 42.3363C152.792 42.3761 152.898 42.4318 152.989 42.4915C153.084 42.5552 153.155 42.6268 153.21 42.7143C153.265 42.8058 153.292 42.9212 153.292 43.0605C153.292 43.1878 153.273 43.3112 153.229 43.4226C153.182 43.534 153.123 43.6295 153.04 43.7131C152.957 43.7967 152.851 43.8643 152.733 43.9081C152.611 43.9598 152.473 43.9757 152.319 43.9757C152.008 43.9757 151.748 43.924 151.539 43.8245C151.535 43.7449 151.535 43.6614 151.527 43.5738C151.523 43.4863 151.523 43.4107 151.519 43.351C151.511 43.2913 151.511 43.2555 151.511 43.2515C151.507 43.16 151.468 43.1162 151.389 43.1162H151.259V43.8524V43.924V43.9956C151.594 44.1428 151.941 44.2145 152.307 44.2145C152.504 44.2145 152.682 44.1826 152.835 44.119C152.989 44.0593 153.123 43.9678 153.229 43.8643C153.332 43.7569 153.422 43.6295 153.478 43.4863C153.533 43.3391 153.56 43.1839 153.56 43.0167C153.56 42.8536 153.533 42.7223 153.478 42.6148ZM157.923 40.4382C157.994 40.4303 158.029 40.3984 158.029 40.3388V40.2273H157.564H157.285H156.816V40.3388C156.816 40.3984 156.851 40.4303 156.926 40.4382H156.981C157.009 40.4382 157.044 40.4422 157.099 40.4422C157.154 40.4422 157.218 40.4502 157.285 40.4502V43.9479C157.218 43.9479 157.154 43.9518 157.099 43.9518C157.044 43.9518 157.009 43.9598 156.981 43.9598H156.926C156.851 43.9638 156.816 43.9956 156.816 44.0593V44.1707H157.285H157.564H158.029V44.0593C158.029 43.9956 157.994 43.9638 157.923 43.9598H157.868C157.84 43.9598 157.801 43.9518 157.746 43.9518C157.69 43.9518 157.631 43.9479 157.564 43.9479V40.4502C157.631 40.4502 157.69 40.4422 157.746 40.4422C157.801 40.4422 157.84 40.4382 157.868 40.4382H157.923ZM164.796 40.2313H164.548H164.071V40.3388C164.071 40.3984 164.106 40.4303 164.181 40.4382H164.236C164.264 40.4382 164.307 40.4422 164.362 40.4422C164.417 40.4422 164.484 40.4502 164.548 40.4502V43.534C164.548 43.5858 164.547 43.6415 164.555 43.6972L162.029 40.2831C162.01 40.2592 162.002 40.2433 161.982 40.2353C161.966 40.2313 161.95 40.2273 161.923 40.2273H161.785H161.316V40.3388C161.316 40.3984 161.355 40.4303 161.426 40.4382H161.482C161.509 40.4382 161.549 40.4422 161.604 40.4422C161.659 40.4422 161.718 40.4502 161.785 40.4502V43.9479C161.718 43.9479 161.659 43.9518 161.604 43.9518C161.549 43.9518 161.509 43.9598 161.482 43.9598H161.426C161.355 43.9638 161.316 43.9956 161.316 44.0593V44.1707H161.785H162.029H162.506V44.0593C162.506 43.9956 162.471 43.9638 162.396 43.9598H162.341C162.313 43.9598 162.266 43.9518 162.211 43.9518C162.155 43.9518 162.092 43.9479 162.029 43.9479V40.8561C162.029 40.8043 162.029 40.7486 162.021 40.6929L164.559 44.115C164.587 44.1548 164.614 44.1707 164.658 44.1707H164.796V40.4502C164.863 40.4502 164.918 40.4422 164.973 40.4422C165.028 40.4422 165.072 40.4382 165.099 40.4382H165.15C165.221 40.4303 165.261 40.3984 165.261 40.3388V40.2313H164.796ZM169.537 40.4382C169.608 40.4303 169.643 40.3984 169.643 40.3388V40.2273H169.178H168.898H168.429V40.3388C168.429 40.3984 168.465 40.4303 168.54 40.4382H168.595C168.622 40.4382 168.658 40.4422 168.713 40.4422C168.768 40.4422 168.831 40.4502 168.898 40.4502V43.9479C168.831 43.9479 168.768 43.9518 168.713 43.9518C168.658 43.9518 168.622 43.9598 168.595 43.9598H168.54C168.465 43.9638 168.429 43.9956 168.429 44.0593V44.1707H168.898H169.178H169.643V44.0593C169.643 43.9956 169.608 43.9638 169.537 43.9598H169.481C169.454 43.9598 169.414 43.9518 169.359 43.9518C169.304 43.9518 169.245 43.9479 169.178 43.9479V40.4502C169.245 40.4502 169.304 40.4422 169.359 40.4422C169.414 40.4422 169.454 40.4382 169.481 40.4382H169.537ZM180.681 43.9319L180.5 43.9121L179.01 40.2273H178.727L177.233 43.9121L177.056 43.9319C176.985 43.9359 176.953 43.9757 176.953 44.0434V44.1707H177.127H177.245H177.343H177.383H177.899V44.0434C177.899 43.9678 177.856 43.9359 177.773 43.9319C177.769 43.9319 177.757 43.924 177.741 43.924C177.726 43.924 177.702 43.92 177.663 43.92C177.623 43.92 177.576 43.92 177.521 43.9121L177.907 42.9491L177.935 42.8775H179.799L179.826 42.9491L180.212 43.9121C180.157 43.92 180.114 43.92 180.074 43.92C180.035 43.92 180.007 43.924 179.992 43.924C179.976 43.924 179.964 43.9319 179.96 43.9319C179.877 43.9359 179.83 43.9678 179.83 44.0434V44.1707H180.35H180.39H180.492H180.602H180.788V44.0434C180.788 43.9757 180.752 43.9359 180.681 43.9319ZM178.79 40.7486C178.802 40.7168 178.817 40.677 178.829 40.6372C178.837 40.5974 178.857 40.5616 178.865 40.5138C178.876 40.5616 178.892 40.5974 178.904 40.6372C178.916 40.677 178.932 40.7088 178.943 40.7446L179.716 42.6666H178.021L178.79 40.7486ZM185.761 40.2273H185.481H184.973V40.3388C184.973 40.3984 185.012 40.4303 185.083 40.4382H185.15C185.182 40.4382 185.229 40.4422 185.288 40.4422C185.347 40.4422 185.414 40.4502 185.481 40.4502V42.8616C185.481 43.0486 185.458 43.2157 185.422 43.355C185.375 43.4942 185.316 43.6136 185.237 43.7012C185.162 43.7927 185.064 43.8643 184.953 43.9081C184.843 43.9518 184.713 43.9757 184.575 43.9757C184.52 43.9757 184.465 43.9678 184.429 43.9638C184.39 43.9598 184.35 43.9479 184.319 43.9399C184.283 43.9359 184.256 43.9319 184.236 43.924C184.212 43.92 184.189 43.9121 184.173 43.9121C184.145 43.9121 184.133 43.92 184.126 43.9319C184.114 43.9399 184.106 43.9598 184.102 43.9757C184.102 44.0036 184.102 44.0235 184.098 44.0513C184.098 44.0792 184.09 44.103 184.086 44.1309C184.173 44.1588 184.264 44.1826 184.346 44.1906C184.429 44.2025 184.516 44.2145 184.599 44.2145C184.78 44.2145 184.941 44.1826 185.083 44.1269C185.229 44.0633 185.355 43.9797 185.454 43.8643C185.552 43.7449 185.631 43.6057 185.686 43.4385C185.741 43.2714 185.761 43.0764 185.761 42.8536V40.4502C185.828 40.4502 185.891 40.4422 185.946 40.4422C186.001 40.4422 186.037 40.4382 186.065 40.4382H186.12C186.195 40.4303 186.23 40.3984 186.23 40.3388V40.2273H185.761ZM192.898 43.9319L192.713 43.9121L191.223 40.2273H190.943L189.45 43.9121L189.272 43.9319C189.201 43.9359 189.166 43.9757 189.166 44.0434V44.1707H189.343H189.458H189.56H189.595H190.116V44.0434C190.116 43.9678 190.072 43.9359 189.99 43.9319C189.982 43.9319 189.974 43.924 189.954 43.924C189.938 43.924 189.919 43.92 189.879 43.92C189.84 43.92 189.789 43.92 189.733 43.9121L190.12 42.9491L190.147 42.8775H192.015L192.043 42.9491L192.429 43.9121C192.374 43.92 192.326 43.92 192.291 43.92C192.252 43.92 192.224 43.924 192.208 43.924C192.189 43.924 192.181 43.9319 192.173 43.9319C192.09 43.9359 192.047 43.9678 192.047 44.0434V44.1707H192.567H192.602H192.709H192.819H193V44.0434C193 43.9757 192.969 43.9359 192.898 43.9319ZM191.002 40.7486C191.014 40.7168 191.03 40.677 191.042 40.6372C191.054 40.5974 191.069 40.5616 191.081 40.5138C191.093 40.5616 191.109 40.5974 191.121 40.6372C191.132 40.677 191.148 40.7088 191.16 40.7446L191.932 42.6666H190.238L191.002 40.7486Z" fill="#2F190E"/>
<path d="M70.6807 16.2007H66.6328V7.81436C66.6328 6.41663 67.7024 5.44246 68.9818 5.44246L70.6387 5.52717V4.23533C70.2402 3.9812 69.4642 3.74825 68.793 3.74825C66.6747 3.74825 64.9129 5.48481 64.9129 7.60258V16.2007H62.459V17.9161H64.9129V31.0251H66.6328V17.9161H70.6807V16.2007ZM75.3998 13.3417C76.1338 13.3417 76.763 12.7488 76.763 12.0075C76.763 11.2451 76.1338 10.631 75.3998 10.631C74.6657 10.631 74.0574 11.2451 74.0574 12.0075C74.0574 12.7488 74.6657 13.3417 75.3998 13.3417ZM74.5608 31.0251H76.2597V16.2007H74.5608V31.0251ZM88.0259 15.9042C86.4529 15.9042 85.0267 16.6031 84.0409 17.789V16.2007H82.3001V31.0251H84.0409V21.4951C84.0409 19.3562 85.7608 17.5984 87.8791 17.5984C90.0184 17.5984 91.7383 19.3562 91.7383 21.4951V31.0251H93.4371V21.4951C93.4371 18.382 90.8993 15.9042 88.0259 15.9042ZM111.412 3.74825V18.7209C110.027 17.0266 107.888 15.9042 105.497 15.9042C101.281 15.9042 97.8626 19.3562 97.8626 23.6129C97.8626 27.8696 101.281 31.3216 105.497 31.3216C107.888 31.3216 110.027 30.2203 111.412 28.5049V31.0251H113.131V3.74825H111.412ZM105.497 29.585C102.204 29.585 99.5615 26.959 99.5615 23.6129C99.5615 20.288 102.204 17.6408 105.497 17.6408C108.769 17.6408 111.412 20.288 111.412 23.6129C111.412 26.959 108.769 29.585 105.497 29.585ZM124.289 15.9042C122.863 15.9042 121.542 16.4549 120.598 17.3867V3.74825H118.857V31.0251H120.598V21.4951C120.598 19.3138 122.234 17.5984 124.268 17.5984C126.324 17.5984 128.002 19.3138 128.002 21.4951V31.0251H129.701V21.4951C129.701 18.382 127.268 15.9042 124.289 15.9042ZM141.761 31.3216C145.997 31.3216 149.395 27.8696 149.395 23.6129C149.395 19.3562 145.997 15.9042 141.761 15.9042C137.545 15.9042 134.126 19.3562 134.126 23.6129C134.126 27.8696 137.545 31.3216 141.761 31.3216ZM141.761 29.585C138.468 29.585 135.825 26.959 135.825 23.6129C135.825 20.288 138.468 17.6408 141.761 17.6408C145.032 17.6408 147.675 20.288 147.675 23.6129C147.675 26.959 145.032 29.585 141.761 29.585ZM168.124 15.9042C166.279 15.9042 164.643 16.8996 163.72 18.382C162.755 16.8784 161.14 15.9042 159.462 15.9042C157.994 15.9042 156.631 16.6454 155.75 17.8314V16.2007H154.03V31.0251H155.75V21.3892C155.75 19.2503 157.302 17.6408 159.274 17.6408C161.266 17.6408 162.839 19.2503 162.839 21.3892V31.0251H164.559V21.3892C164.559 19.2503 166.132 17.6408 168.083 17.6408C170.075 17.6408 171.648 19.2503 171.648 21.3892V31.0251H173.326V21.3892C173.326 18.3185 171.019 15.9042 168.124 15.9042ZM192.999 23.4011C192.852 19.1656 189.56 15.9042 185.407 15.9042C181.191 15.9042 177.772 19.3562 177.772 23.6129C177.772 27.8696 181.191 31.3216 185.407 31.3216C188.867 31.3216 191.762 29.0344 192.706 25.8366H190.923C190.042 28.0602 187.903 29.585 185.407 29.585C182.177 29.585 179.534 27.0225 179.471 23.8035H192.999V23.4011ZM185.407 17.6408C188.154 17.6408 190.503 19.568 191.133 22.194H179.639C180.268 19.5468 182.575 17.6408 185.407 17.6408Z" fill="#2F190E"/>
<path d="M50.5984 24.664L42.0427 16.0239V8.19124C42.0415 7.33546 41.7041 6.51511 41.1047 5.91014C40.5052 5.30517 39.6926 4.96499 38.845 4.96422H35.5677C34.9926 4.96463 34.4282 5.12172 33.9341 5.41892C33.44 5.71612 33.0344 6.14242 32.7602 6.65288L26.6277 0.460714C26.4831 0.314655 26.3115 0.19879 26.1225 0.119739C25.9336 0.0406879 25.7311 0 25.5266 0C25.3221 0 25.1196 0.0406879 24.9307 0.119739C24.7417 0.19879 24.5701 0.314655 24.4255 0.460714L0.455419 24.664C0.237664 24.8838 0.0894736 25.1641 0.0296362 25.4691C-0.0302012 25.7741 0.00100916 26.0902 0.11931 26.3773C0.236852 26.6646 0.436203 26.9102 0.692104 27.0829C0.948006 27.2557 1.24894 27.3479 1.55678 27.3479H7.79165V45.4582C7.79165 49.4978 11.0469 52.7859 15.0482 52.7859H36.4225C40.4238 52.7859 43.682 49.4972 43.682 45.4582V27.3479H49.4976C49.8058 27.3477 50.107 27.2555 50.3633 27.0828C50.6196 26.9101 50.8196 26.6646 50.938 26.3773C51.0548 26.0897 51.0849 25.7736 51.0245 25.4688C50.9641 25.164 50.8158 24.884 50.5984 24.664ZM36.4219 49.6417H15.0476C13.9492 49.6406 12.8961 49.1994 12.1196 48.4151C11.343 47.6307 10.9064 46.5672 10.9056 45.4582V26.5969C11.0597 26.3286 11.2487 26.0831 11.4755 25.8629H39.9941C40.2215 26.0831 40.4099 26.3286 40.5669 26.5969V45.4582C40.5675 47.7657 38.7072 49.6417 36.4219 49.6417ZM42.123 24.2036C42.1166 24.2036 42.1073 24.2089 42.1003 24.2089H9.37334C9.36345 24.2089 9.35764 24.2036 9.34775 24.2036H5.3162L25.5269 3.79577L32.8277 11.1681C33.0453 11.388 33.3226 11.5377 33.6245 11.5985C33.9265 11.6592 34.2394 11.6281 34.5239 11.5093C34.8087 11.3902 35.0522 11.1887 35.2237 10.9301C35.3952 10.6714 35.487 10.3673 35.4874 10.0561L35.5677 8.10903L38.9282 8.19182V16.6751C38.9282 17.092 39.091 17.4912 39.3824 17.7872L45.7393 24.2042H42.123V24.2036Z" fill="#E2A30F"/>
<path d="M29.2232 29.7851H22.2493C21.4574 29.7858 20.6981 30.1037 20.1381 30.6691C19.5782 31.2345 19.2633 32.0012 19.2627 32.8008V39.8426C19.2633 40.6422 19.5782 41.4089 20.1381 41.9743C20.6981 42.5397 21.4574 42.8576 22.2493 42.8582H29.2232C30.0149 42.857 30.7739 42.5389 31.3337 41.9736C31.8935 41.4083 32.2086 40.642 32.2098 39.8426V32.8002C32.2086 32.0008 31.8935 31.2346 31.3337 30.6694C30.7738 30.1042 30.0149 29.7862 29.2232 29.7851ZM29.7227 39.842C29.7228 39.9083 29.7099 39.974 29.6849 40.0353C29.6598 40.0966 29.623 40.1523 29.5767 40.1992C29.5303 40.2462 29.4752 40.2834 29.4145 40.3089C29.3539 40.3343 29.2889 40.3475 29.2232 40.3475H22.2493C22.1834 40.3478 22.1181 40.3349 22.0571 40.3096C21.9962 40.2843 21.9408 40.2471 21.8941 40.2001C21.8474 40.1531 21.8104 40.0973 21.7851 40.0359C21.7599 39.9744 21.7469 39.9085 21.7469 39.842V32.8002C21.7468 32.7336 21.7597 32.6677 21.785 32.6062C21.8102 32.5447 21.8473 32.4889 21.894 32.4419C21.9406 32.3949 21.9961 32.3577 22.0571 32.3325C22.118 32.3072 22.1834 32.2943 22.2493 32.2947H29.2232C29.2889 32.2947 29.3539 32.3079 29.4145 32.3333C29.4752 32.3588 29.5303 32.396 29.5767 32.443C29.623 32.4899 29.6598 32.5456 29.6849 32.6069C29.7099 32.6682 29.7228 32.7339 29.7227 32.8002V39.842Z" fill="black"/>
</svg>
